<svg width="61" height="60" viewBox="0 0 61 60" fill="none" xmlns="http://www.w3.org/2000/svg">
<path d="M17.2609 22.8047C17.2609 22.8047 19.9984 18.8766 19.8016 17.3625C19.6047 15.8437 19.075 15.5156 17.5563 14.9859C16.0375 14.4562 15.1469 13.6312 15.1469 13.6312C15.1469 13.6312 14.0453 8.46093 14.1578 7.82343C14.2891 7.06406 17.0266 1.95 23.5281 1.95C29.7953 1.95 32.3688 7.20937 32.0406 11.2547C31.7453 14.9156 30.3906 15.9422 29.4344 18.975C28.4781 22.0125 28.0141 23.8266 28.0141 23.8266L22.3703 24.9797L17.65 23.9578L17.2609 22.8047Z" fill="url(#paint0_linear_10_2)"/>
<path d="M46.7078 25.5422C46.7078 25.5422 48.9578 25.1016 48.9672 23.5734C48.9719 22.0453 48.1516 22.7109 48.1422 21.6C48.1328 20.4891 50.1297 20.2266 51.4422 21.1594C52.4781 21.8953 54.8453 24.2906 54.7141 29.2641C54.5359 36.0188 51.0016 40.9594 45.4375 44.0156C40.9 46.5047 34.2063 46.2094 34.2063 46.2094L46.7078 25.5422V25.5422Z" fill="#5E6367"/>
<path d="M40.6188 26.1047C41.7203 25.9734 46.5531 24.4453 48.2734 24.8859C50.35 25.4156 52.4219 26.8781 52 31.5187C51.4563 37.5422 47.1766 41.2125 45.3344 42.2203C42.0391 44.0203 38.8703 44.0625 38.8703 44.0625C38.8703 44.0625 39.5219 26.2359 40.6188 26.1047Z" fill="#B0B0B1"/>
<path d="M3.79843 11.7516C3.79843 12.3141 7.29531 13.9641 10.5953 14.3578C13.8953 14.7516 15.9391 14.2266 15.9391 14.2266C15.9391 14.2266 15.3766 12.8062 15.3766 11.7516C15.3766 10.6969 15.9203 8.04843 15.0812 7.42968C14.3219 6.86718 13.6937 8.025 13.2344 8.35312C12.7703 8.68125 11.4531 9.60468 9.40468 9.675C7.35624 9.74531 5.57499 9.4125 4.85312 9.80625C4.13124 10.2 3.79843 11.1562 3.79843 11.7516V11.7516Z" fill="#FFBF18"/>
<path d="M23.9922 9.73594C23.7953 10.5563 23.2375 11.1984 22.1453 11.025C21.1234 10.8609 20.6266 9.80625 20.9266 8.77969C21.1609 7.96875 21.7656 7.42031 22.7875 7.59375C23.9594 7.79063 24.1797 8.94375 23.9922 9.73594Z" fill="#2D2B33"/>
<path d="M24.3297 11.9859C25.4875 11.6203 26.3453 11.6156 26.2234 10.8281C26.0828 9.92344 24.5781 10.1812 23.6219 10.6875C22.6047 11.2266 21.2828 12.1453 21.8687 12.8906C22.4922 13.6828 23.6641 12.1969 24.3297 11.9859Z" fill="#73DF86"/>
<path d="M16.0047 24.1875C16.0047 24.1875 17.0172 28.6078 22.075 27.8625C25.6891 27.3281 28.3656 25.5328 28.3656 25.5328L28.4078 22.5844C28.4078 22.5844 26.0078 23.9906 23.1297 23.9484C20.1391 23.9062 17.5422 22.3641 17.5422 22.3641L16.0047 24.1875V24.1875Z" fill="white"/>
<path d="M12.6625 32.3953C12.3109 41.9812 19.5391 46.5375 31.0094 46.7344C43.7219 46.9547 48.6391 39.4969 49.3984 34.8141C50.1906 29.9156 47.0219 28.875 47.0219 28.875C47.0219 28.875 50.1906 27.5531 48.7703 24.4219C48.1094 24.2906 44.8562 25.1578 38.6734 24.5203C32.5328 23.8875 28.3234 24.9609 28.3234 24.9609C28.3234 24.9609 26.7859 26.6344 22.3844 26.4141C17.1109 26.1516 16.0937 24.0844 16.0937 24.0844C16.0937 24.0844 12.8828 26.4328 12.6625 32.3953V32.3953Z" fill="#84574E"/>
<path d="M24.85 34.2844C25.9188 37.9875 29.7344 40.2234 35.4063 39.9609C40.5531 39.7219 44.2938 36.1313 44.9078 32.9672C45.5781 29.5266 44.1813 28.2141 44.1813 28.2141C44.1813 28.2141 47.1531 27.1359 47.1531 25.0453C45.4797 24.0328 40.1594 23.3297 34.2625 23.1094C30.4375 22.9687 28.2813 24.3844 28.2813 24.3844C28.2813 24.3844 22.8672 27.4219 24.85 34.2844Z" fill="#B79277"/>
<defs>
<linearGradient id="paint0_linear_10_2" x1="22.7214" y1="5.3925" x2="24.3766" y2="21.1416" gradientUnits="userSpaceOnUse">
<stop offset="0.171" stop-color="#01AB46"/>
<stop offset="0.345" stop-color="#089E42"/>
<stop offset="0.671" stop-color="#1A7A37"/>
<stop offset="1" stop-color="#2F502A"/>
</linearGradient>
</defs>
</svg>
