<svg width="381" height="112" viewBox="0 0 381 112" fill="none" xmlns="http://www.w3.org/2000/svg">
<path d="M17.0762 82.1334H5.51894L5.59186 73.6021H17.0762C19.9443 73.6021 22.3627 72.958 24.3314 71.6698C26.3002 70.3573 27.7828 68.4494 28.7794 65.9459C29.8002 63.4424 30.3106 60.4164 30.3106 56.8678V54.2792C30.3106 51.557 30.0189 49.1629 29.4356 47.0969C28.8766 45.031 28.038 43.2931 26.92 41.8834C25.8019 40.4737 24.4287 39.4164 22.8002 38.7115C21.1717 37.9823 19.3002 37.6178 17.1856 37.6178H5.30019V29.05H17.1856C20.7342 29.05 23.979 29.6577 26.92 30.873C29.8853 32.0639 32.4495 33.7775 34.6127 36.0136C36.7759 38.2497 38.4408 40.9233 39.6075 44.0344C40.7985 47.1212 41.3939 50.5605 41.3939 54.3521V56.8678C41.3939 60.6351 40.7985 64.0744 39.6075 67.1855C38.4408 70.2966 36.7759 72.9702 34.6127 75.2063C32.4738 77.4181 29.9096 79.1316 26.92 80.3469C23.9547 81.5379 20.6735 82.1334 17.0762 82.1334ZM11.7169 29.05V82.1334H0.779358V29.05H11.7169Z" fill="white"/>
<path d="M72.0189 72.6907V42.6855H82.5189V82.1334H72.6387L72.0189 72.6907ZM73.1856 64.5969L76.2846 64.524C76.2846 67.149 75.9808 69.5917 75.3731 71.8521C74.7655 74.0882 73.854 76.0327 72.6387 77.6855C71.4235 79.3139 69.8922 80.59 68.045 81.5136C66.1978 82.4129 64.0224 82.8625 61.5189 82.8625C59.5988 82.8625 57.8245 82.5952 56.196 82.0605C54.5919 81.5014 53.2064 80.6386 52.0398 79.4719C50.8974 78.281 49.9981 76.7619 49.3419 74.9146C48.7099 73.0431 48.3939 70.7948 48.3939 68.1698V42.6855H58.8939V68.2428C58.8939 69.4094 59.0276 70.3938 59.295 71.1959C59.5867 71.998 59.9877 72.6542 60.4981 73.1646C61.0085 73.675 61.604 74.0396 62.2846 74.2584C62.9894 74.4771 63.7672 74.5865 64.6179 74.5865C66.7811 74.5865 68.4825 74.149 69.7221 73.274C70.986 72.399 71.8731 71.208 72.3835 69.7011C72.9183 68.1698 73.1856 66.4685 73.1856 64.5969Z" fill="white"/>
<path d="M106.837 74.6594C108.125 74.6594 109.267 74.4164 110.264 73.9303C111.26 73.4198 112.038 72.715 112.597 71.8157C113.18 70.8921 113.484 69.8105 113.509 68.5709H123.389C123.364 71.3417 122.623 73.8087 121.165 75.9719C119.706 78.1108 117.75 79.8 115.295 81.0396C112.84 82.2549 110.094 82.8625 107.055 82.8625C103.993 82.8625 101.319 82.3521 99.0346 81.3313C96.7742 80.3105 94.8905 78.9007 93.3835 77.1021C91.8766 75.2792 90.7464 73.1646 89.9929 70.7584C89.2394 68.3278 88.8627 65.7271 88.8627 62.9563V61.899C88.8627 59.1039 89.2394 56.5032 89.9929 54.0969C90.7464 51.6664 91.8766 49.5518 93.3835 47.7532C94.8905 45.9303 96.7742 44.5084 99.0346 43.4875C101.295 42.4667 103.944 41.9563 106.982 41.9563C110.215 41.9563 113.047 42.5761 115.477 43.8157C117.932 45.0553 119.852 46.8296 121.238 49.1386C122.647 51.4233 123.364 54.1334 123.389 57.2688H113.509C113.484 55.9563 113.205 54.7653 112.67 53.6959C112.16 52.6264 111.406 51.7757 110.41 51.1438C109.437 50.4875 108.234 50.1594 106.8 50.1594C105.269 50.1594 104.017 50.4875 103.045 51.1438C102.073 51.7757 101.319 52.6507 100.785 53.7688C100.25 54.8625 99.8731 56.1143 99.6544 57.524C99.4599 58.9094 99.3627 60.3678 99.3627 61.899V62.9563C99.3627 64.4875 99.4599 65.958 99.6544 67.3678C99.8488 68.7775 100.213 70.0292 100.748 71.123C101.307 72.2167 102.073 73.0796 103.045 73.7115C104.017 74.3435 105.281 74.6594 106.837 74.6594Z" fill="white"/>
<path d="M139.977 26.0969V82.1334H129.477V26.0969H139.977ZM164.842 42.6855L147.706 62.2271L138.519 71.524L134.691 63.9407L141.982 54.6803L152.227 42.6855H164.842ZM153.941 82.1334L142.274 63.9042L149.529 57.5605L166.045 82.1334H153.941Z" fill="white"/>
<path d="M289.464 29.05V82.1334H278.526L257.198 46.55V82.1334H246.261V29.05H257.198L278.563 64.6698V29.05H289.464Z" fill="white"/>
<path d="M309.917 29.05V82.1334H298.979V29.05H309.917ZM331.063 51.7271V60.2584H306.927V51.7271H331.063ZM333.615 29.05V37.6178H306.927V29.05H333.615Z" fill="white"/>
<path d="M364.422 29.05V82.1334H353.521V29.05H364.422ZM380.755 29.05V37.6178H337.443V29.05H380.755Z" fill="white"/>
<path d="M173 42.5688C173 42.5688 178.11 35.2363 177.742 32.41C177.375 29.575 176.386 28.9625 173.551 27.9738C170.716 26.985 169.054 25.445 169.054 25.445C169.054 25.445 166.997 15.7938 167.207 14.6038C167.452 13.1863 172.562 3.64001 184.699 3.64001C196.397 3.64001 201.201 13.4575 200.589 21.0088C200.037 27.8425 197.509 29.7588 195.724 35.42C193.939 41.09 193.072 44.4763 193.072 44.4763L182.537 46.6288L173.726 44.7213L173 42.5688Z" fill="url(#paint0_linear_13_119)"/>
<path d="M227.967 47.6787C227.967 47.6787 232.167 46.8562 232.185 44.0037C232.193 41.1512 230.662 42.3937 230.645 40.32C230.627 38.2462 234.355 37.7562 236.805 39.4975C238.738 40.8712 243.157 45.3425 242.912 54.6262C242.58 67.235 235.982 76.4575 225.596 82.1625C217.126 86.8087 204.631 86.2575 204.631 86.2575L227.967 47.6787Z" fill="#5E6367"/>
<path d="M216.601 48.7287C218.657 48.4837 227.679 45.6312 230.89 46.4537C234.766 47.4425 238.634 50.1725 237.846 58.835C236.831 70.0787 228.842 76.93 225.404 78.8112C219.252 82.1712 213.337 82.25 213.337 82.25C213.337 82.25 214.554 48.9737 216.601 48.7287Z" fill="#B0B0B1"/>
<path d="M147.87 21.9362C147.87 22.9862 154.397 26.0662 160.557 26.8012C166.717 27.5362 170.532 26.5562 170.532 26.5562C170.532 26.5562 169.482 23.9049 169.482 21.9362C169.482 19.9674 170.497 15.0237 168.931 13.8687C167.514 12.8187 166.341 14.9799 165.484 15.5924C164.617 16.2049 162.159 17.9287 158.335 18.0599C154.511 18.1912 151.186 17.5699 149.839 18.3049C148.491 19.0399 147.87 20.8249 147.87 21.9362Z" fill="#FFBF18"/>
<path d="M185.565 18.1738C185.197 19.705 184.156 20.9038 182.117 20.58C180.21 20.2738 179.282 18.305 179.842 16.3888C180.28 14.875 181.409 13.8513 183.316 14.175C185.504 14.5425 185.915 16.695 185.565 18.1738Z" fill="#2D2B33"/>
<path d="M186.195 22.3738C188.356 21.6913 189.957 21.6825 189.73 20.2125C189.467 18.5238 186.659 19.005 184.874 19.95C182.975 20.9563 180.507 22.6713 181.601 24.0625C182.765 25.5413 184.952 22.7675 186.195 22.3738Z" fill="#73DF86"/>
<path d="M170.655 45.15C170.655 45.15 172.545 53.4012 181.986 52.01C188.732 51.0125 193.729 47.6612 193.729 47.6612L193.807 42.1575C193.807 42.1575 189.327 44.7825 183.955 44.7037C178.372 44.625 173.525 41.7462 173.525 41.7462L170.655 45.15Z" fill="white"/>
<path d="M164.416 60.4713C163.76 78.365 177.252 86.87 198.664 87.2375C222.394 87.6488 231.572 73.7275 232.99 64.9863C234.469 55.8425 228.554 53.9 228.554 53.9C228.554 53.9 234.469 51.4325 231.817 45.5875C230.584 45.3425 224.511 46.9613 212.97 45.7713C201.507 44.59 193.65 46.5938 193.65 46.5938C193.65 46.5938 190.78 49.7175 182.564 49.3063C172.72 48.8163 170.821 44.9575 170.821 44.9575C170.821 44.9575 164.827 49.3413 164.416 60.4713Z" fill="#84574E"/>
<path d="M187.166 63.9975C189.161 70.91 196.284 75.0837 206.871 74.5937C216.479 74.1475 223.461 67.445 224.607 61.5387C225.859 55.1162 223.251 52.6662 223.251 52.6662C223.251 52.6662 228.799 50.6537 228.799 46.7512C225.675 44.8612 215.744 43.5487 204.736 43.1375C197.596 42.875 193.571 45.5175 193.571 45.5175C193.571 45.5175 183.465 51.1875 187.166 63.9975Z" fill="#B79277"/>
<defs>
<linearGradient id="paint0_linear_13_119" x1="183.193" y1="10.066" x2="186.282" y2="39.4643" gradientUnits="userSpaceOnUse">
<stop offset="0.171" stop-color="#01AB46"/>
<stop offset="0.345" stop-color="#089E42"/>
<stop offset="0.671" stop-color="#1A7A37"/>
<stop offset="1" stop-color="#2F502A"/>
</linearGradient>
</defs>
</svg>
