<svg width="204" height="60" viewBox="0 0 204 60" fill="none" xmlns="http://www.w3.org/2000/svg">
<path d="M8.73047 44H2.53906L2.57812 39.4297H8.73047C10.2669 39.4297 11.5625 39.0846 12.6172 38.3945C13.6719 37.6914 14.4661 36.6693 15 35.3281C15.5469 33.987 15.8203 32.3659 15.8203 30.4648V29.0781C15.8203 27.6198 15.6641 26.3372 15.3516 25.2305C15.0521 24.1237 14.6029 23.1927 14.0039 22.4375C13.4049 21.6823 12.6693 21.1159 11.7969 20.7383C10.9245 20.3477 9.92188 20.1523 8.78906 20.1523H2.42188V15.5625H8.78906C10.6901 15.5625 12.4284 15.888 14.0039 16.5391C15.5924 17.1771 16.9661 18.0951 18.125 19.293C19.2839 20.4909 20.1758 21.9232 20.8008 23.5898C21.4388 25.2435 21.7578 27.0859 21.7578 29.1172V30.4648C21.7578 32.4831 21.4388 34.3255 20.8008 35.9922C20.1758 37.6589 19.2839 39.0911 18.125 40.2891C16.9792 41.474 15.6055 42.3919 14.0039 43.043C12.4154 43.681 10.6576 44 8.73047 44ZM5.85938 15.5625V44H0V15.5625H5.85938Z" fill="black"/>
<path d="M38.1641 38.9414V22.8672H43.7891V44H38.4961L38.1641 38.9414ZM38.7891 34.6055L40.4492 34.5664C40.4492 35.9727 40.2865 37.2812 39.9609 38.4922C39.6354 39.6901 39.1471 40.7318 38.4961 41.6172C37.8451 42.4896 37.0247 43.1732 36.0352 43.668C35.0456 44.1497 33.8802 44.3906 32.5391 44.3906C31.5104 44.3906 30.5599 44.2474 29.6875 43.9609C28.8281 43.6615 28.0859 43.1992 27.4609 42.5742C26.849 41.9362 26.3672 41.1224 26.0156 40.1328C25.6771 39.1302 25.5078 37.9258 25.5078 36.5195V22.8672H31.1328V36.5586C31.1328 37.1836 31.2044 37.7109 31.3477 38.1406C31.5039 38.5703 31.7188 38.9219 31.9922 39.1953C32.2656 39.4688 32.5846 39.6641 32.9492 39.7812C33.3268 39.8984 33.7435 39.957 34.1992 39.957C35.3581 39.957 36.2695 39.7227 36.9336 39.2539C37.6107 38.7852 38.0859 38.1471 38.3594 37.3398C38.6458 36.5195 38.7891 35.6081 38.7891 34.6055Z" fill="black"/>
<path d="M56.8164 39.9961C57.5065 39.9961 58.1185 39.8659 58.6523 39.6055C59.1862 39.332 59.6029 38.9544 59.9023 38.4727C60.2148 37.9779 60.3776 37.3984 60.3906 36.7344H65.6836C65.6706 38.2188 65.2734 39.5404 64.4922 40.6992C63.7109 41.8451 62.6628 42.75 61.3477 43.4141C60.0326 44.0651 58.5612 44.3906 56.9336 44.3906C55.293 44.3906 53.8607 44.1172 52.6367 43.5703C51.4258 43.0234 50.4167 42.2682 49.6094 41.3047C48.8021 40.3281 48.1966 39.1953 47.793 37.9062C47.3893 36.6042 47.1875 35.2109 47.1875 33.7266V33.1602C47.1875 31.6628 47.3893 30.2695 47.793 28.9805C48.1966 27.6784 48.8021 26.5456 49.6094 25.582C50.4167 24.6055 51.4258 23.8438 52.6367 23.2969C53.8477 22.75 55.2669 22.4766 56.8945 22.4766C58.6263 22.4766 60.1432 22.8086 61.4453 23.4727C62.7604 24.1367 63.7891 25.0872 64.5312 26.3242C65.2865 27.5482 65.6706 29 65.6836 30.6797H60.3906C60.3776 29.9766 60.2279 29.3385 59.9414 28.7656C59.668 28.1927 59.2643 27.737 58.7305 27.3984C58.2096 27.0469 57.5651 26.8711 56.7969 26.8711C55.9766 26.8711 55.306 27.0469 54.7852 27.3984C54.2643 27.737 53.8607 28.2057 53.5742 28.8047C53.2878 29.3906 53.0859 30.0612 52.9688 30.8164C52.8646 31.5586 52.8125 32.3398 52.8125 33.1602V33.7266C52.8125 34.5469 52.8646 35.3346 52.9688 36.0898C53.0729 36.8451 53.2682 37.5156 53.5547 38.1016C53.8542 38.6875 54.2643 39.1497 54.7852 39.4883C55.306 39.8268 55.9831 39.9961 56.8164 39.9961Z" fill="black"/>
<path d="M74.5703 13.9805V44H68.9453V13.9805H74.5703ZM87.8906 22.8672L78.7109 33.3359L73.7891 38.3164L71.7383 34.2539L75.6445 29.293L81.1328 22.8672H87.8906ZM82.0508 44L75.8008 34.2344L79.6875 30.8359L88.5352 44H82.0508Z" fill="black"/>
<path d="M154.652 15.5625V44H148.793L137.367 24.9375V44H131.508V15.5625H137.367L148.812 34.6445V15.5625H154.652Z" fill="black"/>
<path d="M165.609 15.5625V44H159.75V15.5625H165.609ZM176.938 27.7109V32.2812H164.008V27.7109H176.938ZM178.305 15.5625V20.1523H164.008V15.5625H178.305Z" fill="black"/>
<path d="M194.809 15.5625V44H188.969V15.5625H194.809ZM203.559 15.5625V20.1523H180.355V15.5625H203.559Z" fill="black"/>
<path d="M92.2609 22.8047C92.2609 22.8047 94.9984 18.8766 94.8016 17.3625C94.6047 15.8437 94.075 15.5156 92.5563 14.9859C91.0375 14.4562 90.1469 13.6312 90.1469 13.6312C90.1469 13.6312 89.0453 8.46093 89.1578 7.82343C89.2891 7.06406 92.0266 1.95 98.5281 1.95C104.795 1.95 107.369 7.20937 107.041 11.2547C106.745 14.9156 105.391 15.9422 104.434 18.975C103.478 22.0125 103.014 23.8266 103.014 23.8266L97.3703 24.9797L92.65 23.9578L92.2609 22.8047Z" fill="url(#paint0_linear_11_14)"/>
<path d="M121.708 25.5422C121.708 25.5422 123.958 25.1016 123.967 23.5734C123.972 22.0453 123.152 22.7109 123.142 21.6C123.133 20.4891 125.13 20.2266 126.442 21.1594C127.478 21.8953 129.845 24.2906 129.714 29.2641C129.536 36.0188 126.002 40.9594 120.438 44.0156C115.9 46.5047 109.206 46.2094 109.206 46.2094L121.708 25.5422V25.5422Z" fill="#5E6367"/>
<path d="M115.619 26.1047C116.72 25.9734 121.553 24.4453 123.273 24.8859C125.35 25.4156 127.422 26.8781 127 31.5187C126.456 37.5422 122.177 41.2125 120.334 42.2203C117.039 44.0203 113.87 44.0625 113.87 44.0625C113.87 44.0625 114.522 26.2359 115.619 26.1047Z" fill="#B0B0B1"/>
<path d="M78.7984 11.7516C78.7984 12.3141 82.2953 13.9641 85.5953 14.3578C88.8953 14.7516 90.9391 14.2266 90.9391 14.2266C90.9391 14.2266 90.3766 12.8062 90.3766 11.7516C90.3766 10.6969 90.9203 8.04843 90.0812 7.42968C89.3219 6.86718 88.6937 8.025 88.2344 8.35312C87.7703 8.68125 86.4531 9.60468 84.4047 9.675C82.3562 9.74531 80.575 9.4125 79.8531 9.80625C79.1312 10.2 78.7984 11.1562 78.7984 11.7516V11.7516Z" fill="#FFBF18"/>
<path d="M98.9922 9.73594C98.7953 10.5563 98.2375 11.1984 97.1453 11.025C96.1234 10.8609 95.6266 9.80625 95.9266 8.77969C96.1609 7.96875 96.7656 7.42031 97.7875 7.59375C98.9594 7.79063 99.1797 8.94375 98.9922 9.73594Z" fill="#2D2B33"/>
<path d="M99.3297 11.9859C100.487 11.6203 101.345 11.6156 101.223 10.8281C101.083 9.92344 99.5781 10.1812 98.6219 10.6875C97.6047 11.2266 96.2828 12.1453 96.8687 12.8906C97.4922 13.6828 98.6641 12.1969 99.3297 11.9859Z" fill="#73DF86"/>
<path d="M91.0047 24.1875C91.0047 24.1875 92.0172 28.6078 97.075 27.8625C100.689 27.3281 103.366 25.5328 103.366 25.5328L103.408 22.5844C103.408 22.5844 101.008 23.9906 98.1297 23.9484C95.1391 23.9062 92.5422 22.3641 92.5422 22.3641L91.0047 24.1875V24.1875Z" fill="white"/>
<path d="M87.6625 32.3953C87.3109 41.9812 94.5391 46.5375 106.009 46.7344C118.722 46.9547 123.639 39.4969 124.398 34.8141C125.191 29.9156 122.022 28.875 122.022 28.875C122.022 28.875 125.191 27.5531 123.77 24.4219C123.109 24.2906 119.856 25.1578 113.673 24.5203C107.533 23.8875 103.323 24.9609 103.323 24.9609C103.323 24.9609 101.786 26.6344 97.3844 26.4141C92.1109 26.1516 91.0937 24.0844 91.0937 24.0844C91.0937 24.0844 87.8828 26.4328 87.6625 32.3953V32.3953Z" fill="#84574E"/>
<path d="M99.85 34.2844C100.919 37.9875 104.734 40.2234 110.406 39.9609C115.553 39.7219 119.294 36.1313 119.908 32.9672C120.578 29.5266 119.181 28.2141 119.181 28.2141C119.181 28.2141 122.153 27.1359 122.153 25.0453C120.48 24.0328 115.159 23.3297 109.263 23.1094C105.438 22.9687 103.281 24.3844 103.281 24.3844C103.281 24.3844 97.8672 27.4219 99.85 34.2844Z" fill="#B79277"/>
<defs>
<linearGradient id="paint0_linear_11_14" x1="97.7214" y1="5.3925" x2="99.3766" y2="21.1416" gradientUnits="userSpaceOnUse">
<stop offset="0.171" stop-color="#01AB46"/>
<stop offset="0.345" stop-color="#089E42"/>
<stop offset="0.671" stop-color="#1A7A37"/>
<stop offset="1" stop-color="#2F502A"/>
</linearGradient>
</defs>
</svg>
