<svg width="48" height="48" viewBox="0 0 48 48" fill="none" xmlns="http://www.w3.org/2000/svg">
<path d="M21.7516 41.2016L11.3516 37.2016C10.6849 36.9349 10.1099 36.3766 9.62656 35.5266C9.14323 34.6766 8.9849 33.8182 9.15156 32.9516C9.35156 32.0182 9.74323 31.2849 10.3266 30.7516C10.9099 30.2182 11.5182 29.8849 12.1516 29.7516L16.1016 28.9516L9.45156 14.0516C8.8849 12.7849 8.85156 11.5099 9.35156 10.2266C9.85156 8.94323 10.7349 8.01823 12.0016 7.45156C13.2682 6.8849 14.5432 6.85156 15.8266 7.35156C17.1099 7.85156 18.0349 8.7349 18.6016 10.0016L22.1016 17.8516L23.3016 17.3516C23.4349 17.2849 23.5766 17.2516 23.7266 17.2516H24.2016L32.4516 17.5016C33.3182 17.5349 34.0849 17.8432 34.7516 18.4266C35.4182 19.0099 35.8682 19.7349 36.1016 20.6016L38.9016 31.3016C39.1682 32.2682 39.0766 33.1766 38.6266 34.0266C38.1766 34.8766 37.5016 35.5016 36.6016 35.9016L24.9016 41.1516C24.4016 41.3849 23.8766 41.5016 23.3266 41.5016C22.7766 41.5016 22.2516 41.4016 21.7516 41.2016ZM23.3016 38.5516L36.1516 32.8516L33.0516 20.6016L22.8516 20.1516L20.3516 21.2516L15.8516 11.2016C15.5849 10.6349 15.2182 10.2599 14.7516 10.0766C14.2849 9.89323 13.7682 9.9349 13.2016 10.2016C12.6349 10.4682 12.2599 10.8349 12.0766 11.3016C11.8932 11.7682 11.9349 12.2849 12.2016 12.8516L20.3016 31.1016L12.6016 32.7016L12.0016 34.2016L23.3016 38.5516Z" fill="black"/>
</svg>
